<svg width="86" height="80" viewBox="0 0 86 80" fill="none" xmlns="http://www.w3.org/2000/svg">
<path d="M14.0616 4.27343L30.1308 58.998C30.1308 58.998 32.5103 53.5841 34.3189 49.8465C36.0803 46.2064 36.9808 43.307 38.0596 40.1902C38.3725 39.2869 38.6264 38.221 39.3125 37.5512C39.8146 37.0615 41.7001 35.9132 42.3597 35.7143C42.5128 35.6682 42.526 35.697 42.5138 35.8491C42.0142 37.4375 40.4118 39.4376 40.4145 41.0995C40.4159 42.3015 41.3345 43.826 41.5957 45.125C41.7757 46.0236 41.7044 47.7395 42.3309 48.3382C43.2347 49.2013 44.703 48.6975 45.5246 47.9633C46.7151 46.8987 47.2273 45.1786 47.229 43.6125C47.2293 43.087 46.9297 41.807 47.0008 41.4987C47.0292 41.3751 47.7496 40.5169 47.9018 40.2746C48.1343 39.9053 48.263 39.4826 48.4818 39.107L48.7207 38.9846C52.6369 37.9805 56.7276 38.1431 60.6884 38.8164C62.1512 39.0653 65.4353 40.1082 66.0304 41.5748C66.301 42.2414 66.2951 43.3805 65.6576 43.8324C64.7277 44.49 63.7586 43.294 62.8339 43.0446C61.2538 42.6165 59.2727 42.8299 57.6484 42.5183C57.098 42.4133 56.718 42.1998 56.2065 42.0339C58.0574 43.5875 60.842 43.2791 63.112 43.8221C64.1573 44.0726 64.9949 44.5302 65.2262 45.6748C65.4718 46.8941 65.1303 47.6469 64.2253 48.4317C64.0156 48.502 63.5787 48.0818 63.3141 47.9739C62.1507 47.5004 59.6787 47.113 58.3765 46.9443C57.9675 46.8911 57.5624 46.804 57.1465 46.876L58.3223 47.3364C59.7103 47.7028 62.2815 47.88 63.4179 48.5137C64.4652 49.0973 64.4687 50.5598 63.8894 51.48C63.227 52.5315 62.92 52.1577 62.0375 51.9586C60.6594 51.6488 59.2621 51.4486 57.8548 51.3258L61.6435 52.1895C64.1279 52.852 63.2453 56.0914 60.8031 55.7829C60.6157 55.2292 60.6386 54.69 60.4425 54.1134C59.9788 52.7484 58.888 51.9583 57.4185 52.2619C56.8123 50.0407 53.274 49.8469 52.7032 52.1823C51.1922 50.9911 49.1824 51.3392 48.3936 53.1526C48.0001 54.0562 47.9186 55.1512 47.6568 56.1011C46.3919 55.4249 44.7839 55.1275 43.7406 56.3622C43.1277 57.0863 42.8694 58.6646 42.8694 58.6646L36.137 77.9086L22.0186 77.9086L0 4.27344L14.0616 4.27343ZM63.7145 48.8842C63.5421 48.902 63.4934 48.8306 63.5423 49.0256C63.7146 49.704 63.713 50.1651 63.5409 50.8391C64.0004 50.3226 63.8328 49.5028 63.7146 48.8852L63.7145 48.8842Z" fill="#02A6DC"/>
<path d="M82.5756 4.47618C82.5756 4.47618 82.2153 5.06985 82.111 5.35594C81.54 6.93081 79.8958 8.88679 79.2473 10.5241C79.1916 10.7742 78.9777 10.9645 78.9777 10.9645C78.8763 11.5519 77.7955 12.9261 77.4746 13.468C75.9601 16.0306 74.7768 18.947 73.1837 21.4945C72.8813 21.9779 72.8182 22.1055 72.5822 22.4959C72.2639 23.0225 71.9359 23.5147 71.7619 23.8412C70.6384 25.9471 69.6168 28.2474 68.3276 30.2725C68.1354 30.5737 68.1859 30.4972 68.1025 30.6454C67.5852 31.5655 67.5688 32.2043 67.252 33.2113C66.7624 34.7676 66.0926 37.2249 66.0926 37.2249C66.0926 37.2249 65.9045 38.4124 65.6113 39.0401C65.5185 39.2387 65.5026 39.3905 65.3305 39.5262C64.945 39.8298 64.3962 39.21 64.1351 39.1397C63.1916 38.8834 62.1322 38.3293 60.7862 38.0429C59.3083 37.7285 56.9336 37.6865 56.9336 37.6865C56.9336 37.6865 56.1073 37.6456 55.5538 37.5782C54.7994 37.4864 53.9656 37.5003 53.6012 37.5035C52.103 37.5166 48.2405 38.273 48.2405 38.273C48.2405 38.273 47.8795 38.4422 47.7021 38.618C47.4107 38.9068 47.2555 39.5692 47.2555 39.5692C47.2555 39.5692 46.811 40.4093 46.5242 40.795C46.3387 41.0445 45.754 40.5646 46.0559 41.4389C46.1657 41.7569 46.1339 41.9583 46.1696 42.2929C46.2939 43.457 46.3427 44.712 46.1927 45.2905C46.1124 45.5985 45.8837 46.2717 45.5046 46.7945C45.2897 47.0909 45.1754 47.2809 44.8732 47.4873C44.1763 47.963 43.1449 48.2857 42.7147 47.5695C42.6343 46.7694 42.5645 45.9605 42.4173 45.1701C42.2972 44.524 42.1183 43.7161 41.7532 42.8454C41.6301 42.552 41.5063 42.41 41.4083 42.1072C41.1706 41.3728 41.1743 40.8452 41.3916 40.1304C41.7284 39.0201 42.5444 37.6852 43.0287 36.5823C43.476 35.5668 43.968 33.6681 44.6285 32.9059C45.3789 32.0386 48.746 30.6144 49.9534 29.9973C52.1926 28.8547 54.8308 26.8429 54.8308 26.8429L64.8827 4.4718L82.5805 4.47176L82.5756 4.47618Z" fill="#F5F5F5"/>
<path d="M55.6055 51.3749C55.6055 51.3749 55.4912 51.3272 55.6076 51.3758C55.724 51.4244 55.9204 51.4559 55.9204 51.4559C55.9204 51.4559 56.1313 51.5441 56.2391 51.6388C56.3465 51.7333 56.3795 51.8128 56.4609 51.9305C57.4587 53.3727 56.7654 54.6793 56.5601 56.4214C56.4369 57.4675 56.7656 58.3188 56.0222 59.0643C55.2769 59.8119 54.3468 60.0564 53.3748 59.6048C53.3369 59.5869 52.9074 59.3199 52.7014 59.1432C52.4954 58.9665 52.5522 57.6098 52.5522 57.6098C52.5522 57.6098 52.7679 55.4694 53.1382 54.15C53.4392 53.0774 53.1874 52.0528 54.142 51.4798C54.2318 51.4259 54.283 51.3957 54.3797 51.3554C54.8217 51.1713 55.6055 51.3749 55.6055 51.3749Z" fill="#F5F5F5"/>
<path d="M52.6429 54.3837C52.6429 54.3837 52.1907 58.2557 52.0134 58.6692C51.591 59.6548 51.0567 60.3856 50.0397 60.3265C49.8582 60.3162 49.0677 60.0721 48.959 59.9742C48.7068 59.7469 48.8199 59.7893 48.4448 59.5274C48.1512 59.3223 47.9437 58.8498 47.926 58.4953C47.8928 57.8198 48.5258 55.4823 48.7367 54.7024C48.8889 54.1412 49.1171 53.4358 49.3754 52.9646C49.7583 52.2661 50.952 52.2211 51.8102 52.649C52.0384 52.7628 52.1754 52.8333 52.3451 53.0238C52.7064 53.4297 52.6429 54.3837 52.6429 54.3837Z" fill="#F5F5F5"/>
<path d="M59.1645 53.3802C59.58 53.6755 59.7999 54.521 59.7999 54.521C59.7999 54.521 60.7339 55.9316 60.5237 56.8671C60.4337 57.2676 60.2412 57.6303 60.0803 57.8201C59.6339 58.348 58.8337 58.7045 58.1425 58.6612C58.1425 58.6612 57.7104 58.7181 57.4739 58.6051C57.2046 58.4765 57.1057 58.2942 56.9753 58.0255C56.7841 57.6314 56.8999 56.9062 56.8999 56.9062L57.239 54.3288C57.239 54.3288 57.1552 53.6902 57.3797 53.4004C57.7662 52.9015 58.5962 52.9761 59.1645 53.3802Z" fill="#F5F5F5"/>
<path d="M46.5426 56.2765C47.0211 56.4833 47.331 56.6241 47.5028 57.2043C48.0349 58.9951 46.579 60.3945 44.8715 59.5612C44.1598 59.2136 43.941 58.6762 43.8982 57.9382C43.8781 57.5907 43.8327 57.3364 44.0422 57.0586C44.1724 56.886 44.4604 56.575 44.8144 56.3932C45.3113 56.138 45.9216 56.0081 46.5426 56.2765Z" fill="#F5F5F5"/>
<path d="M63.7128 48.8834C63.831 49.501 63.9995 50.3206 63.539 50.8372C63.7112 50.1633 63.7129 49.7032 63.5405 49.0238C63.4906 48.8289 63.5404 48.9011 63.7127 48.8824L63.7128 48.8834Z" fill="#F5F5F5"/>
</svg>
