<svg width="43" height="40" viewBox="0 0 43 40" fill="none" xmlns="http://www.w3.org/2000/svg">
<path d="M7.03082 2.13671L15.0654 29.499C15.0654 29.499 16.2552 26.792 17.1594 24.9233C18.0401 23.1032 18.4904 21.6535 19.0298 20.0951C19.1862 19.6435 19.3132 19.1105 19.6563 18.7756C19.9073 18.5307 20.85 17.9566 21.1798 17.8572C21.2564 17.8341 21.263 17.8485 21.2569 17.9245C21.0071 18.7188 20.2059 19.7188 20.2073 20.5498C20.2079 21.1508 20.6673 21.913 20.7978 22.5625C20.8878 23.0118 20.8522 23.8698 21.1655 24.1691C21.6173 24.6006 22.3515 24.3487 22.7623 23.9817C23.3576 23.4493 23.6136 22.5893 23.6145 21.8062C23.6147 21.5435 23.4648 20.9035 23.5004 20.7493C23.5146 20.6875 23.8748 20.2585 23.9509 20.1373C24.0671 19.9526 24.1315 19.7413 24.2409 19.5535L24.3604 19.4923C26.3184 18.9902 28.3638 19.0715 30.3442 19.4082C31.0756 19.5326 32.7177 20.0541 33.0152 20.7874C33.1505 21.1207 33.1475 21.6903 32.8288 21.9162C32.3638 22.245 31.8793 21.647 31.417 21.5223C30.6269 21.3083 29.6364 21.4149 28.8242 21.2591C28.549 21.2067 28.359 21.0999 28.1032 21.017C29.0287 21.7938 30.421 21.6395 31.556 21.9111C32.0786 22.0363 32.4974 22.2651 32.6131 22.8374C32.7359 23.447 32.5652 23.8235 32.1126 24.2158C32.0078 24.251 31.7894 24.0409 31.6571 23.9869C31.0753 23.7502 29.8394 23.5565 29.1883 23.4721C28.9838 23.4456 28.7812 23.402 28.5732 23.438L29.1611 23.6682C29.8552 23.8514 31.1407 23.94 31.709 24.2569C32.2326 24.5487 32.2344 25.2799 31.9447 25.74C31.6135 26.2658 31.46 26.0788 31.0187 25.9793C30.3297 25.8244 29.6311 25.7243 28.9274 25.6629L30.8218 26.0948C32.0639 26.426 31.6226 28.0457 30.4016 27.8914C30.3078 27.6146 30.3193 27.345 30.2212 27.0567C29.9894 26.3742 29.444 25.9792 28.7092 26.1309C28.4062 25.0203 26.637 24.9235 26.3516 26.0911C25.5961 25.4955 24.5912 25.6696 24.1968 26.5763C24 27.0281 23.9593 27.5756 23.8284 28.0506C23.196 27.7125 22.3919 27.5638 21.8703 28.1811C21.5638 28.5432 21.4347 29.3323 21.4347 29.3323L18.0685 38.9543L11.0093 38.9543L0 2.13672L7.03082 2.13671ZM31.8573 24.4421C31.7711 24.451 31.7467 24.4153 31.7711 24.5128C31.8573 24.852 31.8565 25.0826 31.7704 25.4195C32.0002 25.1613 31.9164 24.7514 31.8573 24.4426L31.8573 24.4421Z" fill="#02A6DC"/>
<path d="M41.2878 2.23418C41.2878 2.23418 41.1077 2.53102 41.0555 2.67406C40.77 3.4615 39.9479 4.43949 39.6236 5.25816C39.5958 5.38321 39.4889 5.47834 39.4889 5.47834C39.4382 5.77206 38.8977 6.45914 38.7373 6.73011C37.98 8.0114 37.3884 9.4696 36.5918 10.7433C36.4406 10.985 36.4091 11.0488 36.2911 11.244C36.1319 11.5074 35.968 11.7534 35.8809 11.9167C35.3192 12.9696 34.8084 14.1198 34.1638 15.1323C34.0677 15.283 34.0929 15.2447 34.0512 15.3188C33.7926 15.7788 33.7844 16.0982 33.626 16.6017C33.3812 17.3799 33.0463 18.6085 33.0463 18.6085C33.0463 18.6085 32.9523 19.2023 32.8056 19.5161C32.7592 19.6154 32.7513 19.6914 32.6652 19.7592C32.4725 19.911 32.1981 19.6011 32.0676 19.5659C31.5958 19.4378 31.0661 19.1607 30.3931 19.0176C29.6541 18.8603 28.4668 18.8393 28.4668 18.8393C28.4668 18.8393 28.0537 18.8189 27.7769 18.7852C27.3997 18.7393 26.9828 18.7463 26.8006 18.7478C26.0515 18.7544 24.1203 19.1326 24.1203 19.1326C24.1203 19.1326 23.9398 19.2172 23.8511 19.3051C23.7054 19.4495 23.6278 19.7807 23.6278 19.7807C23.6278 19.7807 23.4055 20.2007 23.2621 20.3936C23.1693 20.5184 22.877 20.2784 23.0279 20.7156C23.0828 20.8746 23.0669 20.9753 23.0848 21.1426C23.1469 21.7246 23.1714 22.3521 23.0964 22.6413C23.0562 22.7953 22.9418 23.1319 22.7523 23.3934C22.6449 23.5416 22.5877 23.6366 22.4366 23.7397C22.0881 23.9776 21.5724 24.1389 21.3574 23.7808C21.3171 23.3808 21.2822 22.9763 21.2086 22.5811C21.1486 22.2581 21.0591 21.8541 20.8766 21.4188C20.8151 21.2721 20.7532 21.2011 20.7042 21.0497C20.5853 20.6825 20.5871 20.4187 20.6958 20.0613C20.8642 19.5061 21.2722 18.8387 21.5143 18.2873C21.738 17.7795 21.984 16.8301 22.3143 16.4491C22.6895 16.0154 24.373 15.3033 24.9767 14.9948C26.0963 14.4235 27.4154 13.4176 27.4154 13.4176L32.4413 2.23199L41.2902 2.23198L41.2878 2.23418Z" fill="#08043A"/>
<path d="M27.8037 25.6836C27.8037 25.6836 27.7466 25.6597 27.8048 25.684C27.863 25.7083 27.9612 25.724 27.9612 25.724C27.9612 25.724 28.0666 25.7681 28.1205 25.8155C28.1742 25.8627 28.1907 25.9025 28.2314 25.9614C28.7303 26.6825 28.3837 27.3357 28.281 28.2068C28.2194 28.7298 28.3838 29.1555 28.0121 29.5282C27.6394 29.902 27.1744 30.0243 26.6884 29.7985C26.6694 29.7895 26.4547 29.6561 26.3517 29.5677C26.2487 29.4793 26.2771 28.801 26.2771 28.801C26.2771 28.801 26.385 27.7308 26.5701 27.0711C26.7206 26.5348 26.5947 26.0225 27.072 25.736C27.1169 25.709 27.1425 25.6939 27.1908 25.6738C27.4118 25.5818 27.8037 25.6836 27.8037 25.6836Z" fill="#08043A"/>
<path d="M26.3234 27.1879C26.3234 27.1879 26.0973 29.1239 26.0087 29.3307C25.7975 29.8235 25.5303 30.1889 25.0218 30.1593C24.9311 30.1542 24.5358 30.0322 24.4814 29.9832C24.3553 29.8695 24.4119 29.8908 24.2244 29.7598C24.0776 29.6573 23.9738 29.421 23.9649 29.2437C23.9483 28.906 24.2648 27.7372 24.3703 27.3473C24.4464 27.0667 24.5605 26.714 24.6897 26.4784C24.8811 26.1292 25.4779 26.1066 25.9071 26.3206C26.0212 26.3775 26.0897 26.4127 26.1745 26.508C26.3552 26.711 26.3234 27.1879 26.3234 27.1879Z" fill="#08043A"/>
<path d="M29.5842 26.6901C29.7919 26.8378 29.9019 27.2605 29.9019 27.2605C29.9019 27.2605 30.3689 27.9658 30.2638 28.4336C30.2188 28.6338 30.1225 28.8152 30.0421 28.91C29.8189 29.174 29.4188 29.3523 29.0732 29.3306C29.0732 29.3306 28.8571 29.359 28.7389 29.3026C28.6042 29.2382 28.5548 29.1471 28.4896 29.0127C28.394 28.8157 28.4519 28.4531 28.4519 28.4531L28.6215 27.1644C28.6215 27.1644 28.5796 26.8451 28.6918 26.7002C28.8851 26.4507 29.3001 26.4881 29.5842 26.6901Z" fill="#08043A"/>
<path d="M23.2733 28.1363C23.5125 28.2397 23.6674 28.3101 23.7533 28.6002C24.0194 29.4956 23.2914 30.1953 22.4377 29.7786C22.0818 29.6048 21.9724 29.3361 21.9511 28.9671C21.941 28.7934 21.9183 28.6663 22.0231 28.5274C22.0882 28.441 22.2321 28.2855 22.4092 28.1946C22.6576 28.067 22.9628 28.0021 23.2733 28.1363Z" fill="#08043A"/>
<path d="M31.8554 24.4397C31.9145 24.7485 31.9988 25.1584 31.7685 25.4167C31.8546 25.0797 31.8555 24.8496 31.7693 24.5099C31.7443 24.4125 31.7692 24.4486 31.8554 24.4392L31.8554 24.4397Z" fill="#02A6DC"/>
</svg>
