<svg width="172" height="40" viewBox="0 0 172 40" fill="none" xmlns="http://www.w3.org/2000/svg">
<path d="M7.03082 2.13281L15.0654 29.4951C15.0654 29.4951 16.2552 26.7881 17.1594 24.9194C18.0401 23.0993 18.4904 21.6496 19.0298 20.0912C19.1862 19.6396 19.3132 19.1066 19.6563 18.7717C19.9073 18.5268 20.85 17.9527 21.1798 17.8533C21.2564 17.8302 21.263 17.8446 21.2569 17.9206C21.0071 18.7149 20.2059 19.7149 20.2073 20.5459C20.2079 21.1469 20.6673 21.9091 20.7978 22.5586C20.8878 23.0079 20.8522 23.8659 21.1655 24.1652C21.6173 24.5967 22.3515 24.3448 22.7623 23.9778C23.3576 23.4454 23.6136 22.5854 23.6145 21.8023C23.6147 21.5396 23.4648 20.8996 23.5004 20.7454C23.5146 20.6836 23.8748 20.2546 23.9509 20.1334C24.0671 19.9487 24.1315 19.7374 24.2409 19.5496L24.3604 19.4884C26.3184 18.9863 28.3638 19.0676 30.3442 19.4043C31.0756 19.5287 32.7177 20.0502 33.0152 20.7835C33.1505 21.1168 33.1475 21.6864 32.8288 21.9123C32.3638 22.2411 31.8793 21.6431 31.417 21.5184C30.6269 21.3044 29.6364 21.411 28.8242 21.2552C28.549 21.2028 28.359 21.096 28.1032 21.0131C29.0287 21.7898 30.421 21.6356 31.556 21.9071C32.0786 22.0324 32.4974 22.2612 32.6131 22.8335C32.7359 23.4431 32.5652 23.8196 32.1126 24.2119C32.0078 24.2471 31.7894 24.037 31.6571 23.983C31.0753 23.7463 29.8394 23.5526 29.1883 23.4682C28.9838 23.4417 28.7812 23.3981 28.5732 23.4341L29.1611 23.6643C29.8552 23.8475 31.1407 23.9361 31.709 24.253C32.2326 24.5447 32.2344 25.276 31.9447 25.7361C31.6135 26.2618 31.46 26.0749 31.0187 25.9754C30.3297 25.8205 29.6311 25.7204 28.9274 25.659L30.8218 26.0909C32.0639 26.4221 31.6226 28.0418 30.4016 27.8875C30.3078 27.6107 30.3193 27.3411 30.2212 27.0528C29.9894 26.3703 29.444 25.9753 28.7092 26.127C28.4062 25.0164 26.637 24.9196 26.3516 26.0872C25.5961 25.4916 24.5912 25.6657 24.1968 26.5724C24 27.0242 23.9593 27.5717 23.8284 28.0467C23.196 27.7085 22.3919 27.5599 21.8703 28.1772C21.5638 28.5393 21.4347 29.3284 21.4347 29.3284L18.0685 38.9504L11.0093 38.9504L0 2.13281L7.03082 2.13281ZM31.8573 24.4382C31.7711 24.4471 31.7467 24.4114 31.7711 24.5089C31.8573 24.8481 31.8565 25.0786 31.7704 25.4156C32.0002 25.1574 31.9164 24.7475 31.8573 24.4387L31.8573 24.4382Z" fill="#02A6DC"/>
<path d="M41.2878 2.23418C41.2878 2.23418 41.1077 2.53102 41.0555 2.67406C40.77 3.4615 39.9479 4.43949 39.6236 5.25816C39.5958 5.38321 39.4889 5.47834 39.4889 5.47834C39.4382 5.77206 38.8977 6.45914 38.7373 6.73011C37.98 8.0114 37.3884 9.4696 36.5918 10.7433C36.4406 10.985 36.4091 11.0488 36.2911 11.244C36.1319 11.5074 35.968 11.7534 35.8809 11.9167C35.3192 12.9696 34.8084 14.1198 34.1638 15.1323C34.0677 15.283 34.0929 15.2447 34.0512 15.3188C33.7926 15.7788 33.7844 16.0982 33.626 16.6017C33.3812 17.3799 33.0463 18.6085 33.0463 18.6085C33.0463 18.6085 32.9523 19.2023 32.8056 19.5161C32.7592 19.6154 32.7513 19.6914 32.6652 19.7592C32.4725 19.911 32.1981 19.6011 32.0676 19.5659C31.5958 19.4378 31.0661 19.1607 30.3931 19.0176C29.6541 18.8603 28.4668 18.8393 28.4668 18.8393C28.4668 18.8393 28.0537 18.8189 27.7769 18.7852C27.3997 18.7393 26.9828 18.7463 26.8006 18.7478C26.0515 18.7544 24.1203 19.1326 24.1203 19.1326C24.1203 19.1326 23.9398 19.2172 23.8511 19.3051C23.7054 19.4495 23.6278 19.7807 23.6278 19.7807C23.6278 19.7807 23.4055 20.2007 23.2621 20.3936C23.1693 20.5184 22.877 20.2784 23.0279 20.7156C23.0828 20.8746 23.0669 20.9753 23.0848 21.1426C23.1469 21.7246 23.1714 22.3521 23.0964 22.6413C23.0562 22.7953 22.9418 23.1319 22.7523 23.3934C22.6449 23.5416 22.5877 23.6366 22.4366 23.7397C22.0881 23.9776 21.5724 24.1389 21.3574 23.7808C21.3171 23.3808 21.2822 22.9763 21.2086 22.5811C21.1486 22.2581 21.0591 21.8541 20.8766 21.4188C20.8151 21.2721 20.7532 21.2011 20.7042 21.0497C20.5853 20.6825 20.5871 20.4187 20.6958 20.0613C20.8642 19.5061 21.2722 18.8387 21.5143 18.2873C21.738 17.7795 21.984 16.8301 22.3143 16.4491C22.6895 16.0154 24.373 15.3033 24.9767 14.9948C26.0963 14.4235 27.4154 13.4176 27.4154 13.4176L32.4413 2.23199L41.2902 2.23198L41.2878 2.23418Z" fill="#08043A"/>
<path d="M27.8018 25.6836C27.8018 25.6836 27.7446 25.6597 27.8028 25.684C27.861 25.7083 27.9592 25.724 27.9592 25.724C27.9592 25.724 28.0647 25.7681 28.1186 25.8155C28.1723 25.8627 28.1888 25.9025 28.2295 25.9614C28.7284 26.6825 28.3817 27.3357 28.2791 28.2068C28.2175 28.7298 28.3818 29.1555 28.0101 29.5282C27.6375 29.902 27.1724 30.0243 26.6864 29.7985C26.6675 29.7895 26.4527 29.6561 26.3497 29.5677C26.2467 29.4793 26.2751 28.801 26.2751 28.801C26.2751 28.801 26.383 27.7308 26.5681 27.0711C26.7186 26.5348 26.5927 26.0225 27.07 25.736C27.1149 25.709 27.1405 25.6939 27.1889 25.6738C27.4099 25.5818 27.8018 25.6836 27.8018 25.6836Z" fill="#08043A"/>
<path d="M26.3215 27.1879C26.3215 27.1879 26.0954 29.1239 26.0067 29.3307C25.7955 29.8235 25.5284 30.1889 25.0198 30.1593C24.9291 30.1542 24.5339 30.0322 24.4795 29.9832C24.3534 29.8695 24.41 29.8908 24.2224 29.7598C24.0756 29.6573 23.9719 29.421 23.963 29.2437C23.9464 28.906 24.2629 27.7372 24.3684 27.3473C24.4444 27.0667 24.5586 26.714 24.6877 26.4784C24.8792 26.1292 25.476 26.1066 25.9051 26.3206C26.0192 26.3775 26.0877 26.4127 26.1725 26.508C26.3532 26.711 26.3215 27.1879 26.3215 27.1879Z" fill="#08043A"/>
<path d="M29.5822 26.6862C29.79 26.8339 29.9 27.2566 29.9 27.2566C29.9 27.2566 30.3669 27.9619 30.2618 28.4297C30.2169 28.6299 30.1206 28.8113 30.0402 28.9061C29.8169 29.1701 29.4169 29.3484 29.0713 29.3267C29.0713 29.3267 28.8552 29.3551 28.737 29.2987C28.6023 29.2343 28.5528 29.1432 28.4877 29.0088C28.3921 28.8118 28.45 28.4492 28.45 28.4492L28.6195 27.1605C28.6195 27.1605 28.5776 26.8412 28.6899 26.6963C28.8831 26.4468 29.2981 26.4842 29.5822 26.6862Z" fill="#08043A"/>
<path d="M23.2713 28.1363C23.5106 28.2397 23.6655 28.3101 23.7514 28.6002C24.0175 29.4956 23.2895 30.1953 22.4358 29.7786C22.0799 29.6048 21.9705 29.3361 21.9491 28.9671C21.9391 28.7934 21.9164 28.6663 22.0211 28.5274C22.0862 28.441 22.2302 28.2855 22.4072 28.1946C22.6557 28.067 22.9608 28.0021 23.2713 28.1363Z" fill="#08043A"/>
<path d="M31.8574 24.4397C31.9165 24.7485 32.0007 25.1584 31.7705 25.4167C31.8566 25.0797 31.8574 24.8496 31.7712 24.5099C31.7463 24.4125 31.7712 24.4486 31.8573 24.4392L31.8574 24.4397Z" fill="#02A6DC"/>
<path d="M52.6637 27L47.2457 12.0686H50.3173L54.4341 24.0564L58.5936 12.0686H61.6438L56.2046 27H52.6637ZM64.6958 31.6927L67.3408 25.8055H66.7009L62.3708 16.3774H65.5063L68.5993 23.1818L71.3722 16.3774H74.4438L67.746 31.6927H64.6958ZM80.492 27.256C79.4113 27.256 78.4514 27.0284 77.6124 26.5734C76.7876 26.1041 76.1406 25.4642 75.6713 24.6536C75.2021 23.8289 74.9674 22.8761 74.9674 21.7953C74.9674 20.6862 75.195 19.705 75.65 18.8517C76.1193 17.9985 76.7663 17.3302 77.5911 16.8467C78.4301 16.3632 79.3971 16.1214 80.492 16.1214C81.5586 16.1214 82.49 16.3561 83.2863 16.8253C84.0827 17.2804 84.7084 17.899 85.1634 18.6811C85.6185 19.4632 85.846 20.3591 85.846 21.3687C85.846 21.5109 85.8389 21.6745 85.8247 21.8593C85.8247 22.03 85.8176 22.2077 85.8033 22.3926H77.0365V20.6222H82.9237C82.8811 19.968 82.6322 19.4419 82.1772 19.0437C81.7363 18.6455 81.1817 18.4465 80.5134 18.4465C80.0157 18.4465 79.5606 18.5602 79.1482 18.7877C78.7358 19.0011 78.4088 19.3352 78.167 19.7903C77.9253 20.2311 77.8044 20.7857 77.8044 21.4541V22.0726C77.8044 22.6557 77.9182 23.1605 78.1457 23.5871C78.3732 23.9995 78.6861 24.3266 79.0842 24.5683C79.4966 24.7958 79.9588 24.9096 80.4707 24.9096C80.9969 24.9096 81.4377 24.7958 81.7932 24.5683C82.1487 24.3266 82.4189 24.0208 82.6038 23.6511H85.526C85.327 24.3337 84.9928 24.9452 84.5235 25.4855C84.0542 26.0259 83.4783 26.4596 82.7957 26.7867C82.1132 27.0995 81.3453 27.256 80.492 27.256ZM92.5345 27.256C91.5959 27.256 90.764 27.0995 90.0388 26.7867C89.3135 26.4738 88.7376 26.0472 88.311 25.5069C87.8844 24.9523 87.6355 24.3266 87.5644 23.6298H90.4441C90.5009 23.8857 90.6218 24.1275 90.8067 24.355C90.9915 24.5683 91.2262 24.739 91.5106 24.8669C91.795 24.9949 92.1221 25.0589 92.4918 25.0589C92.89 25.0589 93.2099 25.0092 93.4517 24.9096C93.6934 24.7958 93.8712 24.6536 93.9849 24.483C94.0987 24.2981 94.1556 24.1133 94.1556 23.9284C94.1556 23.6298 94.0703 23.4023 93.8996 23.2458C93.729 23.0894 93.473 22.9614 93.1317 22.8619C92.8046 22.7623 92.4136 22.6628 91.9585 22.5632C91.4893 22.4637 91.0129 22.3428 90.5294 22.2006C90.0459 22.0442 89.6051 21.8593 89.2069 21.646C88.8229 21.4185 88.5101 21.1341 88.2684 20.7928C88.0266 20.4373 87.9057 19.9965 87.9057 19.4703C87.9057 18.8446 88.0764 18.2758 88.4177 17.7639C88.759 17.2519 89.2567 16.8538 89.9108 16.5694C90.5649 16.2707 91.3471 16.1214 92.2572 16.1214C93.537 16.1214 94.5537 16.4129 95.3074 16.996C96.0611 17.579 96.509 18.3825 96.6513 19.4063H93.9423C93.857 19.065 93.665 18.802 93.3663 18.6171C93.0819 18.4322 92.7051 18.3398 92.2358 18.3398C91.7381 18.3398 91.3542 18.4322 91.084 18.6171C90.828 18.802 90.7 19.0295 90.7 19.2997C90.7 19.4988 90.7925 19.6765 90.9773 19.8329C91.1622 19.9751 91.4182 20.1031 91.7452 20.2169C92.0723 20.3164 92.4634 20.416 92.9184 20.5155C93.7005 20.7004 94.3973 20.8995 95.0088 21.1128C95.6345 21.3119 96.1251 21.6176 96.4806 22.03C96.8503 22.4282 97.0352 23.0041 97.0352 23.7578C97.0494 24.4261 96.8717 25.0305 96.5019 25.5709C96.1322 26.097 95.6132 26.5094 94.9448 26.808C94.2765 27.1067 93.473 27.256 92.5345 27.256ZM103.845 27.256C102.907 27.256 102.075 27.0995 101.35 26.7867C100.625 26.4738 100.049 26.0472 99.622 25.5069C99.1954 24.9523 98.9466 24.3266 98.8755 23.6298H101.755C101.812 23.8857 101.933 24.1275 102.118 24.355C102.303 24.5683 102.537 24.739 102.822 24.8669C103.106 24.9949 103.433 25.0589 103.803 25.0589C104.201 25.0589 104.521 25.0092 104.763 24.9096C105.004 24.7958 105.182 24.6536 105.296 24.483C105.41 24.2981 105.467 24.1133 105.467 23.9284C105.467 23.6298 105.381 23.4023 105.211 23.2458C105.04 23.0894 104.784 22.9614 104.443 22.8619C104.116 22.7623 103.725 22.6628 103.27 22.5632C102.8 22.4637 102.324 22.3428 101.84 22.2006C101.357 22.0442 100.916 21.8593 100.518 21.646C100.134 21.4185 99.8211 21.1341 99.5794 20.7928C99.3376 20.4373 99.2167 19.9965 99.2167 19.4703C99.2167 18.8446 99.3874 18.2758 99.7287 17.7639C100.07 17.2519 100.568 16.8538 101.222 16.5694C101.876 16.2707 102.658 16.1214 103.568 16.1214C104.848 16.1214 105.865 16.4129 106.618 16.996C107.372 17.579 107.82 18.3825 107.962 19.4063H105.253C105.168 19.065 104.976 18.802 104.677 18.6171C104.393 18.4322 104.016 18.3398 103.547 18.3398C103.049 18.3398 102.665 18.4322 102.395 18.6171C102.139 18.802 102.011 19.0295 102.011 19.2997C102.011 19.4988 102.103 19.6765 102.288 19.8329C102.473 19.9751 102.729 20.1031 103.056 20.2169C103.383 20.3164 103.774 20.416 104.229 20.5155C105.012 20.7004 105.708 20.8995 106.32 21.1128C106.946 21.3119 107.436 21.6176 107.792 22.03C108.161 22.4282 108.346 23.0041 108.346 23.7578C108.36 24.4261 108.183 25.0305 107.813 25.5709C107.443 26.097 106.924 26.5094 106.256 26.808C105.587 27.1067 104.784 27.256 103.845 27.256ZM115.804 27V12.0686H125.531V14.3937H118.684V18.3825H124.187V20.6435H118.684V27H115.804ZM127.615 27V12.0686H131.071L135.678 21.3687L140.264 12.0686H143.699V27H140.819V16.9533L136.809 24.8883H134.526L130.495 16.9533V27H127.615ZM151.712 27.256C150.632 27.256 149.665 27.0711 148.811 26.7014C147.958 26.3316 147.29 25.7913 146.806 25.0803C146.323 24.3692 146.067 23.5089 146.038 22.4993H149.089C149.117 22.9401 149.231 23.3383 149.43 23.6938C149.643 24.0493 149.942 24.3337 150.326 24.547C150.71 24.7461 151.165 24.8456 151.691 24.8456C152.146 24.8456 152.537 24.7745 152.864 24.6323C153.205 24.4759 153.469 24.2626 153.653 23.9924C153.838 23.7222 153.931 23.4023 153.931 23.0325C153.931 22.5917 153.824 22.2291 153.611 21.9447C153.397 21.6603 153.106 21.4185 152.736 21.2194C152.366 21.0203 151.94 20.8426 151.456 20.6862C150.987 20.5155 150.489 20.3449 149.963 20.1742C148.797 19.7761 147.908 19.2641 147.297 18.6384C146.685 17.9985 146.38 17.1524 146.38 16.1001C146.38 15.2042 146.593 14.4363 147.02 13.7964C147.46 13.1565 148.058 12.6659 148.811 12.3246C149.579 11.9833 150.461 11.8127 151.456 11.8127C152.466 11.8127 153.348 11.9904 154.101 12.3459C154.869 12.6872 155.474 13.1849 155.914 13.8391C156.355 14.4932 156.59 15.2611 156.618 16.1428H153.525C153.525 15.8157 153.433 15.51 153.248 15.2255C153.078 14.9269 152.836 14.6923 152.523 14.5216C152.21 14.3368 151.84 14.2443 151.414 14.2443C151.044 14.2301 150.703 14.287 150.39 14.415C150.091 14.543 149.849 14.7349 149.665 14.9909C149.494 15.2327 149.409 15.5384 149.409 15.9081C149.409 16.2636 149.494 16.5623 149.665 16.804C149.835 17.0458 150.077 17.2591 150.39 17.4439C150.717 17.6146 151.087 17.7781 151.499 17.9345C151.926 18.0767 152.388 18.226 152.886 18.3825C153.639 18.6384 154.322 18.9442 154.933 19.2997C155.559 19.641 156.057 20.0889 156.426 20.6435C156.796 21.1981 156.981 21.9304 156.981 22.8405C156.981 23.6227 156.775 24.3479 156.362 25.0163C155.964 25.6846 155.374 26.225 154.592 26.6374C153.81 27.0498 152.85 27.256 151.712 27.256Z" fill="#08043A"/>
</svg>
