<svg width="28" height="28" viewBox="0 0 28 28" fill="none" xmlns="http://www.w3.org/2000/svg">
<rect width="28" height="28" rx="3.7037" fill="white"/>
<path d="M14.0016 10.4106C12.0152 10.4106 10.4129 12.0132 10.4129 14C10.4129 15.9868 12.0152 17.5894 14.0016 17.5894C15.988 17.5894 17.5902 15.9868 17.5902 14C17.5902 12.0132 15.988 10.4106 14.0016 10.4106ZM14.0016 16.3336C12.7179 16.3336 11.6685 15.2871 11.6685 14C11.6685 12.7129 12.7148 11.6664 14.0016 11.6664C15.2883 11.6664 16.3346 12.7129 16.3346 14C16.3346 15.2871 15.2852 16.3336 14.0016 16.3336ZM18.574 10.2638C18.574 10.7292 18.1992 11.101 17.737 11.101C17.2716 11.101 16.8999 10.7261 16.8999 10.2638C16.8999 9.80141 17.2747 9.42653 17.737 9.42653C18.1992 9.42653 18.574 9.80141 18.574 10.2638ZM20.9508 11.1135C20.8977 9.99197 20.6416 8.99855 19.8202 8.18007C19.0019 7.3616 18.0087 7.10543 16.8875 7.0492C15.7318 6.9836 12.2682 6.9836 11.1125 7.0492C9.99442 7.10231 9.00123 7.35847 8.17981 8.17695C7.35839 8.99543 7.10541 9.98884 7.04919 11.1103C6.9836 12.2662 6.9836 15.7307 7.04919 16.8865C7.10229 18.008 7.35839 19.0015 8.17981 19.8199C9.00123 20.6384 9.9913 20.8946 11.1125 20.9508C12.2682 21.0164 15.7318 21.0164 16.8875 20.9508C18.0087 20.8977 19.0019 20.6415 19.8202 19.8199C20.6385 19.0015 20.8946 18.008 20.9508 16.8865C21.0164 15.7307 21.0164 12.2693 20.9508 11.1135ZM19.4579 18.1267C19.2143 18.739 18.7427 19.2108 18.1274 19.4575C17.206 19.8231 15.0197 19.7387 14.0016 19.7387C12.9834 19.7387 10.794 19.8199 9.87574 19.4575C9.26358 19.2139 8.79197 18.7422 8.54523 18.1267C8.17981 17.2052 8.26414 15.0184 8.26414 14C8.26414 12.9816 8.18293 10.7917 8.54523 9.87326C8.78885 9.26096 9.26046 8.78924 9.87574 8.54245C10.7971 8.17695 12.9834 8.2613 14.0016 8.2613C15.0197 8.2613 17.2091 8.18007 18.1274 8.54245C18.7395 8.78612 19.2112 9.25784 19.4579 9.87326C19.8233 10.7948 19.739 12.9816 19.739 14C19.739 15.0184 19.8233 17.2083 19.4579 18.1267Z" fill="#08043A"/>
</svg>
