<svg width="16" height="16" viewBox="0 0 16 16" fill="none" xmlns="http://www.w3.org/2000/svg">
<path d="M10.6673 13.3359V2.66927C10.6673 2.31565 10.5268 1.97651 10.2768 1.72646C10.0267 1.47641 9.68761 1.33594 9.33398 1.33594H6.66732C6.3137 1.33594 5.97456 1.47641 5.72451 1.72646C5.47446 1.97651 5.33398 2.31565 5.33398 2.66927V13.3359" stroke="#111827" stroke-width="2" stroke-linecap="round" stroke-linejoin="round"/>
<path d="M13.334 4H2.66732C1.93094 4 1.33398 4.59695 1.33398 5.33333V12C1.33398 12.7364 1.93094 13.3333 2.66732 13.3333H13.334C14.0704 13.3333 14.6673 12.7364 14.6673 12V5.33333C14.6673 4.59695 14.0704 4 13.334 4Z" stroke="#111827" stroke-width="2" stroke-linecap="round" stroke-linejoin="round"/>
</svg>
