<svg width="28" height="28" viewBox="0 0 28 28" fill="none" xmlns="http://www.w3.org/2000/svg">
<rect width="28" height="28" rx="3.7037" fill="white"/>
<path d="M8.015 9.91672C9.065 9.91672 9.905 9.06359 9.905 8.02672C9.905 6.98984 9.05188 6.13672 8.015 6.13672C6.97813 6.13672 6.125 6.98984 6.125 8.02672C6.125 9.06359 6.97813 9.91672 8.015 9.91672ZM11.7031 11.3473V21.8736H14.9581V16.6761C14.9581 15.298 15.2206 13.9723 16.9138 13.9723C18.6069 13.9723 18.6069 15.5473 18.6069 16.7548V21.8736H21.875V16.0986C21.875 13.2636 21.2713 11.0848 17.9638 11.0848C16.3756 11.0848 15.3125 11.9511 14.8794 12.778H14.84V11.3342H11.7163L11.7031 11.3473ZM6.3875 11.3473H9.65563V21.8736H6.3875V11.3473Z" fill="#08043A"/>
</svg>
