<svg width="107" height="100" viewBox="0 0 107 100" fill="none" xmlns="http://www.w3.org/2000/svg">
<path d="M17.5771 5.33983L37.6635 73.7456C37.6635 73.7456 40.6379 66.9781 42.8986 62.3062C45.1003 57.7561 46.226 54.1318 47.5745 50.2358C47.9656 49.1067 48.2831 47.7744 49.1406 46.9371C49.7683 46.3249 52.1251 44.8895 52.9496 44.641C53.141 44.5833 53.1575 44.6193 53.1422 44.8094C52.5177 46.795 50.5148 49.2951 50.5182 51.3725C50.5198 52.875 51.6682 54.7806 51.9946 56.4043C52.2196 57.5275 52.1305 59.6725 52.9137 60.4208C54.0433 61.4997 55.8787 60.8699 56.9058 59.9522C58.3939 58.6214 59.0341 56.4713 59.0363 54.5136C59.0367 53.8569 58.6621 52.2568 58.751 51.8714C58.7866 51.7169 59.687 50.6442 59.8772 50.3414C60.1678 49.8797 60.3288 49.3513 60.6023 48.8818L60.9009 48.7288C65.7961 47.4736 70.9095 47.6769 75.8605 48.5185C77.689 48.8296 81.7941 50.1333 82.538 51.9665C82.8763 52.7998 82.8688 54.2237 82.072 54.7885C80.9096 55.6106 79.6983 54.1155 78.5424 53.8038C76.5673 53.2687 74.0909 53.5354 72.0605 53.1459C71.3725 53.0147 70.8975 52.7477 70.2581 52.5404C72.5718 54.4824 76.0525 54.0969 78.89 54.7757C80.1966 55.0888 81.2436 55.6609 81.5328 57.0916C81.8397 58.6157 81.4129 59.5567 80.2816 60.5377C80.0195 60.6256 79.4734 60.1002 79.1427 59.9654C77.6884 59.3735 74.5984 58.8893 72.9707 58.6784C72.4594 58.612 71.953 58.503 71.4331 58.593L72.9028 59.1685C74.6379 59.6265 77.8518 59.848 79.2724 60.6402C80.5815 61.3697 80.5859 63.1978 79.8618 64.348C79.0338 65.6624 78.65 65.1951 77.5468 64.9462C75.8242 64.559 74.0777 64.3088 72.3185 64.1553L77.0544 65.235C80.1599 66.0631 79.0566 70.1124 76.0039 69.7266C75.7696 69.0346 75.7983 68.3606 75.5531 67.6399C74.9735 65.9336 73.61 64.946 71.7731 65.3254C71.0154 62.5489 66.5925 62.3067 65.879 65.2259C63.9902 63.7369 61.478 64.1721 60.492 66.4388C60.0001 67.5683 59.8983 68.9371 59.571 70.1245C57.9899 69.2792 55.9798 68.9075 54.6758 70.4508C53.9096 71.356 53.5868 73.3288 53.5868 73.3288L45.1713 97.3838L27.5233 97.3838L0 5.33984L17.5771 5.33983ZM79.6431 61.1033C79.4276 61.1255 79.3667 61.0363 79.4278 61.2801C79.6432 62.128 79.6412 62.7044 79.4261 63.5469C80.0004 62.9013 79.791 61.8766 79.6432 61.1046L79.6431 61.1033Z" fill="#02A6DC"/>
<path d="M103.22 5.59327C103.22 5.59327 102.769 6.33535 102.639 6.69297C101.925 8.66156 99.8697 11.1065 99.0591 13.1532C98.9895 13.4658 98.7221 13.7037 98.7221 13.7037C98.5954 14.438 97.2444 16.1557 96.8432 16.8331C94.9501 20.0363 93.471 23.6818 91.4796 26.8661C91.1016 27.4704 91.0227 27.6299 90.7277 28.1179C90.3298 28.7762 89.9199 29.3914 89.7023 29.7996C88.298 32.4319 87.021 35.3074 85.4095 37.8387C85.1693 38.2152 85.2323 38.1195 85.1281 38.3049C84.4815 39.4549 84.461 40.2534 84.065 41.5121C83.453 43.4575 82.6157 46.5292 82.6157 46.5292C82.6157 46.5292 82.3807 48.0135 82.0141 48.7981C81.8981 49.0464 81.8783 49.2362 81.6631 49.4057C81.1813 49.7854 80.4953 49.0105 80.1689 48.9226C78.9895 48.6023 77.6652 47.9097 75.9827 47.5517C74.1353 47.1586 71.167 47.1061 71.167 47.1061C71.167 47.1061 70.1342 47.055 69.4422 46.9708C68.4993 46.856 67.457 46.8735 67.0016 46.8774C65.1287 46.8939 60.3007 47.8393 60.3007 47.8393C60.3007 47.8393 59.8494 48.0508 59.6276 48.2706C59.2634 48.6315 59.0694 49.4595 59.0694 49.4595C59.0694 49.4595 58.5137 50.5097 58.1552 50.9918C57.9233 51.3037 57.1925 50.7038 57.5699 51.7967C57.7071 52.1942 57.6673 52.446 57.712 52.8642C57.8673 54.3192 57.9284 55.8881 57.7409 56.6111C57.6405 56.9961 57.3546 57.8376 56.8808 58.4912C56.6122 58.8617 56.4693 59.0992 56.0915 59.3571C55.2203 59.9517 53.9311 60.3551 53.3934 59.4599C53.2929 58.4599 53.2056 57.4487 53.0216 56.4606C52.8715 55.653 52.6478 54.6431 52.1915 53.5549C52.0377 53.188 51.8829 53.0105 51.7604 52.632C51.4633 51.714 51.4678 51.0546 51.7395 50.161C52.1605 48.7731 53.1804 47.1046 53.7859 45.726C54.345 44.4565 54.96 42.0831 55.7856 41.1305C56.7236 40.0463 60.9325 38.2661 62.4418 37.4947C65.2408 36.0665 68.5385 33.5517 68.5385 33.5517L81.1033 5.5878L103.226 5.58775L103.22 5.59327Z" fill="#08043A"/>
<path d="M69.5074 64.2167C69.5074 64.2167 69.3645 64.1571 69.51 64.2178C69.6554 64.2786 69.901 64.3179 69.901 64.3179C69.901 64.3179 70.1646 64.4281 70.2993 64.5466C70.4337 64.6647 70.4749 64.7641 70.5766 64.9112C71.8239 66.714 70.9572 68.3471 70.7007 70.5249C70.5466 71.8324 70.9575 72.8965 70.0283 73.8284C69.0966 74.7629 67.934 75.0686 66.719 74.504C66.6716 74.4817 66.1348 74.148 65.8772 73.9271C65.6197 73.7062 65.6907 72.0103 65.6907 72.0103C65.6907 72.0103 65.9604 69.3347 66.4232 67.6856C66.7995 66.3448 66.4847 65.0641 67.678 64.3478C67.7903 64.2804 67.8542 64.2427 67.9751 64.1923C68.5277 63.9622 69.5074 64.2167 69.5074 64.2167Z" fill="#08043A"/>
<path d="M65.8036 67.9757C65.8036 67.9757 65.2384 72.8157 65.0168 73.3326C64.4888 74.5645 63.8209 75.4781 62.5496 75.4042C62.3228 75.3914 61.3346 75.0863 61.1987 74.9638C60.8834 74.6797 61.0249 74.7328 60.556 74.4054C60.189 74.149 59.9297 73.5583 59.9075 73.1152C59.8659 72.2708 60.6572 69.3489 60.9209 68.3741C61.1111 67.6726 61.3964 66.7909 61.7192 66.2018C62.1979 65.3288 63.69 65.2725 64.7628 65.8073C65.048 65.9496 65.2193 66.0377 65.4313 66.2759C65.883 66.7833 65.8036 67.9757 65.8036 67.9757Z" fill="#08043A"/>
<path d="M73.9556 66.7213C74.4749 67.0905 74.7499 68.1473 74.7499 68.1473C74.7499 68.1473 75.9174 69.9106 75.6546 71.08C75.5421 71.5806 75.3014 72.034 75.1004 72.2712C74.5423 72.9311 73.5422 73.3768 72.6781 73.3226C72.6781 73.3226 72.138 73.3937 71.8424 73.2525C71.5057 73.0917 71.3821 72.8638 71.2191 72.5279C70.9802 72.0353 71.1249 71.1288 71.1249 71.1288L71.5488 67.9071C71.5488 67.9071 71.444 67.1089 71.7247 66.7466C72.2078 66.1229 73.2453 66.2163 73.9556 66.7213Z" fill="#08043A"/>
<path d="M58.1783 70.3466C58.7764 70.6052 59.1637 70.7811 59.3785 71.5064C60.0437 73.7448 58.2237 75.4941 56.0894 74.4524C55.1997 74.018 54.9262 73.3462 54.8728 72.4237C54.8476 71.9893 54.7909 71.6715 55.0528 71.3242C55.2155 71.1085 55.5755 70.7197 56.018 70.4925C56.6391 70.1735 57.402 70.011 58.1783 70.3466Z" fill="#08043A"/>
<path d="M79.6405 61.1071C79.7882 61.8792 79.9989 62.9037 79.4233 63.5495C79.6385 62.707 79.6406 62.1319 79.4251 61.2827C79.3627 61.039 79.425 61.1294 79.6404 61.1059L79.6405 61.1071Z" fill="#02A6DC"/>
</svg>
