<svg width="20" height="20" viewBox="0 0 20 20" fill="none" xmlns="http://www.w3.org/2000/svg">
<path d="M12.3323 5.00564C11.9941 5.35069 11.9941 5.90293 12.3323 6.24799L13.7522 7.66782C14.0972 8.00604 14.6495 8.00604 14.9945 7.66782L18.34 4.32234C19.2537 6.3414 18.8211 8.71527 17.2541 10.2823C15.687 11.8494 13.3131 12.2819 11.2941 11.3683L5.16218 17.5002C4.42704 18.2353 3.23514 18.2353 2.5 17.5002C1.76486 16.765 1.76486 15.5731 2.5 14.838L8.6319 8.70607C7.71824 6.68702 8.15076 4.31314 9.71782 2.74608C11.2849 1.17902 13.6588 0.746493 15.6778 1.66016L12.3412 4.99676L12.3323 5.00564Z" stroke="#94A3B8" stroke-linecap="round" stroke-linejoin="round"/>
</svg>
