<svg width="20" height="20" viewBox="0 0 20 20" fill="none" xmlns="http://www.w3.org/2000/svg">
<g clip-path="url(#clip0_2118_5090)">
<path d="M10.6901 1.81436C10.473 1.71532 10.2371 1.66406 9.99842 1.66406C9.75977 1.66406 9.52389 1.71532 9.30676 1.81436L2.16509 5.06436C2.01721 5.12956 1.89149 5.23636 1.80323 5.37174C1.71496 5.50712 1.66797 5.66525 1.66797 5.82686C1.66797 5.98847 1.71496 6.1466 1.80323 6.28198C1.89149 6.41736 2.01721 6.52416 2.16509 6.58936L9.31509 9.84769C9.53223 9.94674 9.7681 9.99799 10.0068 9.99799C10.2454 9.99799 10.4813 9.94674 10.6984 9.84769L17.8484 6.59769C17.9963 6.53249 18.122 6.42569 18.2103 6.29031C18.2986 6.15493 18.3455 5.99681 18.3455 5.83519C18.3455 5.67358 18.2986 5.51545 18.2103 5.38007C18.122 5.24469 17.9963 5.1379 17.8484 5.07269L10.6901 1.81436Z" stroke="#94A3B8" stroke-width="2" stroke-linecap="round" stroke-linejoin="round"/>
<path d="M1.66797 10C1.66758 10.1594 1.7129 10.3155 1.79857 10.45C1.88424 10.5844 2.00665 10.6914 2.1513 10.7583L9.31797 14.0167C9.53397 14.1145 9.76836 14.1651 10.0055 14.1651C10.2426 14.1651 10.477 14.1145 10.693 14.0167L17.843 10.7667C17.9905 10.7004 18.1155 10.5926 18.2028 10.4564C18.2901 10.3203 18.3359 10.1617 18.3346 10" stroke="#94A3B8" stroke-width="2" stroke-linecap="round" stroke-linejoin="round"/>
<path d="M1.66797 14.168C1.66758 14.3274 1.7129 14.4835 1.79857 14.6179C1.88424 14.7523 2.00665 14.8594 2.1513 14.9263L9.31797 18.1846C9.53397 18.2824 9.76836 18.333 10.0055 18.333C10.2426 18.333 10.477 18.2824 10.693 18.1846L17.843 14.9346C17.9905 14.8683 18.1155 14.7605 18.2028 14.6244C18.2901 14.4883 18.3359 14.3297 18.3346 14.168" stroke="#94A3B8" stroke-width="2" stroke-linecap="round" stroke-linejoin="round"/>
</g>
<defs>
<clipPath id="clip0_2118_5090">
<rect width="20" height="20" fill="white"/>
</clipPath>
</defs>
</svg>
