<svg width="20" height="20" viewBox="0 0 20 20" fill="none" xmlns="http://www.w3.org/2000/svg">
<path d="M1.66992 10.297C1.60002 10.1098 1.60002 9.90393 1.66992 9.71677C3.06218 6.36127 6.35325 4.17188 10.0049 4.17188C13.6566 4.17188 16.9477 6.36127 18.3399 9.71677C18.4098 9.90393 18.4098 10.1098 18.3399 10.297C16.9477 13.6525 13.6566 15.8419 10.0049 15.8419C6.35325 15.8419 3.06218 13.6525 1.66992 10.297Z" stroke="#94A3B8" stroke-width="2" stroke-linecap="round" stroke-linejoin="round"/>
<path d="M7.5 10C7.5 8.61929 8.61929 7.5 10 7.5C11.3807 7.5 12.5 8.61929 12.5 10C12.5 11.3807 11.3807 12.5 10 12.5C8.61929 12.5 7.5 11.3807 7.5 10Z" stroke="#94A3B8" stroke-width="2" stroke-linecap="round" stroke-linejoin="round"/>
</svg>
