<svg width="14" height="14" viewBox="0 0 14 14" fill="none" xmlns="http://www.w3.org/2000/svg">
<g clip-path="url(#clip0_2118_8186)">
<path d="M6.72136 1.33999C6.74693 1.28834 6.78642 1.24487 6.83538 1.21447C6.88434 1.18408 6.94082 1.16797 6.99845 1.16797C7.05607 1.16797 7.11255 1.18408 7.16151 1.21447C7.21048 1.24487 7.24997 1.28834 7.27553 1.33999L8.62303 4.06941C8.7118 4.24905 8.84284 4.40448 9.00489 4.52234C9.16695 4.6402 9.35519 4.71697 9.55344 4.74607L12.5669 5.18707C12.624 5.19535 12.6777 5.21943 12.7218 5.25661C12.7659 5.29378 12.7988 5.34256 12.8166 5.39743C12.8345 5.45229 12.8366 5.51106 12.8228 5.56708C12.809 5.6231 12.7798 5.67413 12.7384 5.71441L10.5591 7.83657C10.4154 7.97663 10.3079 8.14952 10.2458 8.34036C10.1837 8.53119 10.1689 8.73426 10.2027 8.93207L10.7172 11.9304C10.7273 11.9875 10.7211 12.0462 10.6994 12.1C10.6777 12.1537 10.6413 12.2003 10.5944 12.2343C10.5475 12.2684 10.492 12.2886 10.4342 12.2926C10.3764 12.2966 10.3186 12.2843 10.2674 12.2571L7.57361 10.8407C7.39611 10.7475 7.19863 10.6988 6.99815 10.6988C6.79767 10.6988 6.60019 10.7475 6.4227 10.8407L3.72945 12.2571C3.67831 12.2841 3.62059 12.2963 3.56288 12.2922C3.50516 12.2881 3.44975 12.2679 3.40295 12.2339C3.35615 12.1998 3.31985 12.1533 3.29816 12.0997C3.27648 12.0461 3.27028 11.9874 3.28028 11.9304L3.7942 8.93266C3.82814 8.73475 3.81344 8.53156 3.75134 8.3406C3.68925 8.14965 3.58163 7.97666 3.43778 7.83657L1.25845 5.71499C1.21679 5.67476 1.18728 5.62364 1.17326 5.56745C1.15924 5.51126 1.16128 5.45227 1.17916 5.39718C1.19703 5.3421 1.23002 5.29315 1.27436 5.2559C1.3187 5.21865 1.37261 5.1946 1.42995 5.18649L4.44286 4.74607C4.64135 4.7172 4.82984 4.64052 4.99212 4.52265C5.1544 4.40477 5.28561 4.24923 5.37445 4.06941L6.72136 1.33999Z" stroke="#F59E0B" stroke-width="2" stroke-linecap="round" stroke-linejoin="round"/>
</g>
<defs>
<clipPath id="clip0_2118_8186">
<rect width="14" height="14" fill="white"/>
</clipPath>
</defs>
</svg>
