<svg width="20" height="20" viewBox="0 0 20 20" fill="none" xmlns="http://www.w3.org/2000/svg">
<path d="M16.6601 10.7569C16.6601 14.9943 13.7441 17.113 10.2783 18.3419C10.0969 18.4044 9.89972 18.4014 9.72015 18.3334C6.24602 17.113 3.33008 14.9943 3.33008 10.7569V4.82451C3.33008 4.35646 3.70308 3.97703 4.1632 3.97703C5.82945 3.97703 7.91227 2.96005 9.3619 1.67188C9.72654 1.35497 10.2636 1.35497 10.6283 1.67188C12.0862 2.96852 14.1607 3.97703 15.827 3.97703C16.2871 3.97703 16.6601 4.35646 16.6601 4.82451V10.7569Z" stroke="#94A3B8" stroke-linecap="round" stroke-linejoin="round"/>
<path d="M7.5 9.99312L9.16667 11.6581L12.5 8.32812" stroke="#94A3B8" stroke-linecap="round" stroke-linejoin="round"/>
</svg>
