<svg width="20" height="20" viewBox="0 0 20 20" fill="none" xmlns="http://www.w3.org/2000/svg">
<g clip-path="url(#clip0_2118_5075)">
<path d="M10.4857 2.1563C10.1732 1.84372 9.74939 1.66806 9.3074 1.66797H3.33073C2.8887 1.66797 2.46478 1.84356 2.15222 2.15612C1.83966 2.46868 1.66406 2.89261 1.66406 3.33464V9.3113C1.66416 9.75329 1.83981 10.1771 2.1524 10.4896L9.40573 17.743C9.78449 18.1193 10.2968 18.3306 10.8307 18.3306C11.3647 18.3306 11.877 18.1193 12.2557 17.743L17.7391 12.2596C18.1154 11.8809 18.3267 11.3686 18.3267 10.8346C18.3267 10.3007 18.1154 9.7884 17.7391 9.40964L10.4857 2.1563Z" stroke="#94A3B8" stroke-width="1.66667" stroke-linecap="round" stroke-linejoin="round"/>
<path d="M6.2526 6.66536C6.48272 6.66536 6.66927 6.47882 6.66927 6.2487C6.66927 6.01858 6.48272 5.83203 6.2526 5.83203C6.02249 5.83203 5.83594 6.01858 5.83594 6.2487C5.83594 6.47882 6.02249 6.66536 6.2526 6.66536Z" fill="black" stroke="#94A3B8" stroke-width="1.66667" stroke-linecap="round" stroke-linejoin="round"/>
</g>
<defs>
<clipPath id="clip0_2118_5075">
<rect width="20" height="20" fill="white"/>
</clipPath>
</defs>
</svg>
