<svg width="20" height="20" viewBox="0 0 20 20" fill="none" xmlns="http://www.w3.org/2000/svg">
<path d="M5 18.3419V3.33888C5 2.41822 5.74619 1.67188 6.66667 1.67188H13.3333C14.2538 1.67188 15 2.41822 15 3.33888V18.3419H5Z" stroke="#94A3B8" stroke-linecap="round" stroke-linejoin="round"/>
<path d="M4.99992 10H3.33492C2.41537 10 1.66992 10.7459 1.66992 11.666V16.664C1.66992 17.5841 2.41537 18.33 3.33492 18.33H4.99992" stroke="#94A3B8" stroke-linecap="round" stroke-linejoin="round"/>
<path d="M15 7.5H16.665C17.5846 7.5 18.33 8.24596 18.33 9.16615V16.6638C18.33 17.584 17.5846 18.33 16.665 18.33H15" stroke="#94A3B8" stroke-linecap="round" stroke-linejoin="round"/>
<path d="M8.33008 5H11.6601" stroke="#94A3B8" stroke-linecap="round" stroke-linejoin="round"/>
<path d="M8.33008 8.32812H11.6601" stroke="#94A3B8" stroke-linecap="round" stroke-linejoin="round"/>
<path d="M8.33008 11.6719H11.6601" stroke="#94A3B8" stroke-linecap="round" stroke-linejoin="round"/>
<path d="M8.33008 15H11.6601" stroke="#94A3B8" stroke-linecap="round" stroke-linejoin="round"/>
</svg>
