<svg width="14" height="14" viewBox="0 0 14 14" fill="none" xmlns="http://www.w3.org/2000/svg">
<path d="M11.6693 5.83464C11.6693 8.74722 8.43819 11.7806 7.35319 12.7174C7.25211 12.7934 7.12907 12.8345 7.0026 12.8345C6.87614 12.8345 6.7531 12.7934 6.65202 12.7174C5.56702 11.7806 2.33594 8.74722 2.33594 5.83464C2.33594 4.59696 2.8276 3.40997 3.70277 2.5348C4.57794 1.65963 5.76493 1.16797 7.0026 1.16797C8.24028 1.16797 9.42727 1.65963 10.3024 2.5348C11.1776 3.40997 11.6693 4.59696 11.6693 5.83464Z" stroke="#6B7280" stroke-width="2" stroke-linecap="round" stroke-linejoin="round"/>
<path d="M7 7.58203C7.9665 7.58203 8.75 6.79853 8.75 5.83203C8.75 4.86553 7.9665 4.08203 7 4.08203C6.0335 4.08203 5.25 4.86553 5.25 5.83203C5.25 6.79853 6.0335 7.58203 7 7.58203Z" stroke="#6B7280" stroke-width="2" stroke-linecap="round" stroke-linejoin="round"/>
</svg>
