<svg width="20" height="20" viewBox="0 0 20 20" fill="none" xmlns="http://www.w3.org/2000/svg">
<path d="M16.6601 8.40757C16.6601 12.6115 12.0454 16.9897 10.4958 18.3419C10.1992 18.5672 9.79093 18.5672 9.49437 18.3419C7.94476 16.9897 3.33008 12.6115 3.33008 8.40757C3.33008 4.68755 6.3141 1.67188 9.99508 1.67188C13.6761 1.67187 16.6601 4.68755 16.6601 8.40757Z" stroke="#94A3B8" stroke-linecap="round" stroke-linejoin="round"/>
<path d="M7.5 8.32812C7.5 6.94741 8.61929 5.82812 10 5.82812C11.3807 5.82812 12.5 6.94741 12.5 8.32812C12.5 9.70884 11.3807 10.8281 10 10.8281C8.61929 10.8281 7.5 9.70884 7.5 8.32812Z" stroke="#94A3B8" stroke-linecap="round" stroke-linejoin="round"/>
</svg>
