<svg width="40" height="40" viewBox="0 0 40 40" fill="none" xmlns="http://www.w3.org/2000/svg">
<path d="M10 36.6581V6.66112C10 4.82036 11.4924 3.32812 13.3333 3.32812H26.6667C28.5076 3.32812 30 4.82036 30 6.66112V36.6581H10Z" stroke="#2563EB" stroke-width="2" stroke-linecap="round" stroke-linejoin="round"/>
<path d="M10.0001 20H6.66508C4.82321 20 3.33008 21.4927 3.33008 23.334V33.336C3.33008 35.1773 4.82321 36.67 6.66508 36.67H10.0001" stroke="#2563EB" stroke-width="2" stroke-linecap="round" stroke-linejoin="round"/>
<path d="M30 15H33.335C35.1769 15 36.67 16.4926 36.67 18.3338V33.3362C36.67 35.1774 35.1769 36.67 33.335 36.67H30" stroke="#2563EB" stroke-width="2" stroke-linecap="round" stroke-linejoin="round"/>
<path d="M16.6699 10H23.3399" stroke="#2563EB" stroke-width="2" stroke-linecap="round" stroke-linejoin="round"/>
<path d="M16.6699 16.6719H23.3399" stroke="#2563EB" stroke-width="2" stroke-linecap="round" stroke-linejoin="round"/>
<path d="M16.6699 23.3281H23.3399" stroke="#2563EB" stroke-width="2" stroke-linecap="round" stroke-linejoin="round"/>
<path d="M17 28H23.67" stroke="#2563EB" stroke-width="2" stroke-linecap="round" stroke-linejoin="round"/>
</svg>
