<svg width="20" height="20" viewBox="0 0 20 20" fill="none" xmlns="http://www.w3.org/2000/svg">
<path d="M13.7507 1.66797V4.16797M6.25065 1.66797V4.16797M10.0007 1.66797V4.16797M6.66732 12.5013H10.0007M6.66732 9.16797H13.334M10.834 2.91797H9.16732C6.41732 2.91797 5.04232 2.91797 4.18815 3.77214C3.33398 4.6263 3.33398 6.0013 3.33398 8.7513V12.5013C3.33398 15.2513 3.33398 16.6263 4.18815 17.4805C5.04232 18.3346 6.41732 18.3346 9.16732 18.3346H10.834C13.584 18.3346 14.959 18.3346 15.8132 17.4805C16.6673 16.6263 16.6673 15.2513 16.6673 12.5013V8.7513C16.6673 6.0013 16.6673 4.6263 15.8132 3.77214C14.959 2.91797 13.584 2.91797 10.834 2.91797Z" stroke="#94A3B8" stroke-linecap="round" stroke-linejoin="round"/>
</svg>
