<svg width="20" height="20" viewBox="0 0 20 20" fill="none" xmlns="http://www.w3.org/2000/svg">
<path d="M12.4987 1.66797H4.9987C4.55667 1.66797 4.13275 1.84356 3.82019 2.15612C3.50763 2.46868 3.33203 2.89261 3.33203 3.33464V16.668C3.33203 17.11 3.50763 17.5339 3.82019 17.8465C4.13275 18.159 4.55667 18.3346 4.9987 18.3346H14.9987C15.4407 18.3346 15.8646 18.159 16.1772 17.8465C16.4898 17.5339 16.6654 17.11 16.6654 16.668V5.83464L12.4987 1.66797Z" stroke="currentColor" stroke-width="2" stroke-linecap="round" stroke-linejoin="round"/>
<path d="M11.668 1.66797V5.0013C11.668 5.44333 11.8436 5.86725 12.1561 6.17981C12.4687 6.49237 12.8926 6.66797 13.3346 6.66797H16.668" stroke="currentColor" stroke-width="2" stroke-linecap="round" stroke-linejoin="round"/>
<path d="M8.33464 7.5H6.66797" stroke="currentColor" stroke-width="2" stroke-linecap="round" stroke-linejoin="round"/>
<path d="M13.3346 10.832H6.66797" stroke="currentColor" stroke-width="2" stroke-linecap="round" stroke-linejoin="round"/>
<path d="M13.3346 14.168H6.66797" stroke="currentColor" stroke-width="2" stroke-linecap="round" stroke-linejoin="round"/>
</svg>
