<svg width="20" height="20" viewBox="0 0 20 20" fill="none" xmlns="http://www.w3.org/2000/svg">
<path fill-rule="evenodd" clip-rule="evenodd" d="M7.49951 5.20703C7.19857 5.20703 6.90057 5.26631 6.62253 5.38147C6.34449 5.49664 6.09186 5.66544 5.87906 5.87824C5.66626 6.09105 5.49746 6.34368 5.38229 6.62171C5.26712 6.89975 5.20785 7.19775 5.20785 7.4987C5.20785 7.79964 5.26712 8.09764 5.38229 8.37568C5.49746 8.65372 5.66626 8.90635 5.87906 9.11915C6.09186 9.33195 6.34449 9.50075 6.62253 9.61592C6.90057 9.73109 7.19857 9.79036 7.49951 9.79036C8.1073 9.79036 8.6902 9.54892 9.11997 9.11915C9.54974 8.68938 9.79118 8.10649 9.79118 7.4987C9.79118 6.89091 9.54974 6.30802 9.11997 5.87824C8.6902 5.44847 8.1073 5.20703 7.49951 5.20703ZM6.45785 7.4987C6.45785 7.22243 6.56759 6.95748 6.76294 6.76213C6.95829 6.56678 7.22325 6.45703 7.49951 6.45703C7.77578 6.45703 8.04073 6.56678 8.23608 6.76213C8.43143 6.95748 8.54118 7.22243 8.54118 7.4987C8.54118 7.77497 8.43143 8.03992 8.23608 8.23527C8.04073 8.43062 7.77578 8.54036 7.49951 8.54036C7.22325 8.54036 6.95829 8.43062 6.76294 8.23527C6.56759 8.03992 6.45785 7.77497 6.45785 7.4987ZM7.49951 10.207C6.50285 10.207 5.57035 10.407 4.86285 10.7612C4.19368 11.0962 3.54118 11.6745 3.54118 12.4987V12.5512C3.53951 12.9762 3.53785 13.6929 4.21618 14.1837C4.53118 14.4112 4.94701 14.557 5.46201 14.6495C5.98118 14.7429 6.64701 14.7904 7.49951 14.7904C8.35201 14.7904 9.01785 14.7429 9.53701 14.6495C10.052 14.557 10.4678 14.4112 10.7828 14.1829C11.4612 13.692 11.4595 12.9762 11.4578 12.5504V12.4987C11.4578 11.6737 10.8053 11.0962 10.1362 10.7612C9.42868 10.4079 8.49618 10.207 7.49951 10.207ZM4.79118 12.4987C4.79118 12.4029 4.88535 12.1479 5.42201 11.8795C5.92201 11.6295 6.65535 11.457 7.49951 11.457C8.34368 11.457 9.07785 11.6295 9.57701 11.8795C10.1137 12.1479 10.2078 12.4029 10.2078 12.4987C10.2078 13.002 10.1753 13.0795 10.0495 13.1712C9.94785 13.2445 9.73868 13.3429 9.31618 13.4195C8.89785 13.4945 8.31368 13.5404 7.49951 13.5404C6.68535 13.5404 6.10118 13.4945 5.68285 13.4195C5.26035 13.3429 5.05118 13.2445 4.94951 13.1712C4.82285 13.0795 4.79118 13.002 4.79118 12.4987Z" fill="currentColor"/>
<path d="M15.8327 10.625C15.9984 10.625 16.1574 10.5592 16.2746 10.4419C16.3918 10.3247 16.4577 10.1658 16.4577 10C16.4577 9.83424 16.3918 9.67527 16.2746 9.55806C16.1574 9.44085 15.9984 9.375 15.8327 9.375H12.4993C12.3336 9.375 12.1746 9.44085 12.0574 9.55806C11.9402 9.67527 11.8743 9.83424 11.8743 10C11.8743 10.1658 11.9402 10.3247 12.0574 10.4419C12.1746 10.5592 12.3336 10.625 12.4993 10.625H15.8327ZM16.4577 7.5C16.4577 7.66576 16.3918 7.82473 16.2746 7.94194C16.1574 8.05915 15.9984 8.125 15.8327 8.125H11.666C11.5003 8.125 11.3413 8.05915 11.2241 7.94194C11.1069 7.82473 11.041 7.66576 11.041 7.5C11.041 7.33424 11.1069 7.17527 11.2241 7.05806C11.3413 6.94085 11.5003 6.875 11.666 6.875H15.8327C15.9984 6.875 16.1574 6.94085 16.2746 7.05806C16.3918 7.17527 16.4577 7.33424 16.4577 7.5ZM15.8327 13.125C15.9984 13.125 16.1574 13.0592 16.2746 12.9419C16.3918 12.8247 16.4577 12.6658 16.4577 12.5C16.4577 12.3342 16.3918 12.1753 16.2746 12.0581C16.1574 11.9408 15.9984 11.875 15.8327 11.875H13.3327C13.1669 11.875 13.008 11.9408 12.8907 12.0581C12.7735 12.1753 12.7077 12.3342 12.7077 12.5C12.7077 12.6658 12.7735 12.8247 12.8907 12.9419C13.008 13.0592 13.1669 13.125 13.3327 13.125H15.8327Z" fill="currentColor"/>
<path fill-rule="evenodd" clip-rule="evenodd" d="M8.28714 2.70703H11.7138C13.2455 2.70703 14.4588 2.70703 15.408 2.83453C16.3846 2.9662 17.1755 3.24286 17.7996 3.8662C18.423 4.49036 18.6996 5.2812 18.8313 6.25786C18.9588 7.20786 18.9588 8.42036 18.9588 9.95203V10.0454C18.9588 11.577 18.9588 12.7904 18.8313 13.7395C18.6996 14.7162 18.423 15.507 17.7996 16.1312C17.1755 16.7545 16.3846 17.0312 15.408 17.1629C14.458 17.2904 13.2455 17.2904 11.7138 17.2904H8.28797C6.7563 17.2904 5.54297 17.2904 4.5938 17.1629C3.61714 17.0312 2.8263 16.7545 2.20214 16.1312C1.5788 15.507 1.30214 14.7162 1.17047 13.7395C1.04297 12.7895 1.04297 11.577 1.04297 10.0454V9.95203C1.04297 8.42036 1.04297 7.20703 1.17047 6.25786C1.30214 5.2812 1.5788 4.49036 2.20214 3.8662C2.8263 3.24286 3.61714 2.9662 4.5938 2.83453C5.5438 2.70703 6.75547 2.70703 8.28714 2.70703ZM4.7588 4.0737C3.92047 4.1862 3.43714 4.39786 3.0838 4.75036C2.73214 5.10286 2.52047 5.5862 2.40797 6.42453C2.29297 7.2812 2.2913 8.40953 2.2913 9.9987C2.2913 11.5879 2.29297 12.717 2.40797 13.5737C2.52047 14.4112 2.73214 14.8945 3.08464 15.247C3.43714 15.5995 3.92047 15.8112 4.7588 15.9237C5.61547 16.0387 6.7438 16.0404 8.33297 16.0404H11.6663C13.2555 16.0404 14.3846 16.0387 15.2413 15.9237C16.0788 15.8112 16.5621 15.5995 16.9146 15.247C17.2671 14.8945 17.4788 14.4112 17.5913 13.5729C17.7063 12.7162 17.708 11.5879 17.708 9.9987C17.708 8.40953 17.7063 7.2812 17.5913 6.4237C17.4788 5.5862 17.2671 5.10286 16.9146 4.75036C16.5621 4.39786 16.0788 4.1862 15.2405 4.0737C14.3846 3.9587 13.2555 3.95703 11.6663 3.95703H8.33297C6.7438 3.95703 5.6163 3.9587 4.7588 4.0737Z" fill="currentColor"/></svg>
