<svg width="20" height="20" viewBox="0 0 20 20" fill="none" xmlns="http://www.w3.org/2000/svg">
<path d="M11.5319 13.8143C11.8865 13.9771 12.3066 13.8722 12.5429 13.5618L12.8388 13.1742C13.1536 12.7544 13.6477 12.5074 14.1724 12.5074H16.6729C17.5936 12.5074 18.3399 13.2537 18.3399 14.1744V16.6749C18.3399 17.5955 17.5936 18.3419 16.6729 18.3419C8.38699 18.3419 1.66992 11.6248 1.66992 3.33888C1.66992 2.41822 2.41626 1.67188 3.33692 1.67188H5.83742C6.75808 1.67188 7.50442 2.41822 7.50442 3.33888V5.83938C7.50442 6.36408 7.25738 6.85815 6.83762 7.17298L6.44754 7.46553C6.13204 7.70644 6.03021 8.13642 6.20416 8.49324C7.34329 10.8069 9.21678 12.6781 11.5319 13.8143Z" stroke="#94A3B8" stroke-linecap="round" stroke-linejoin="round"/>
</svg>
